<?xml version="1.0" standalone="no"?>
<!DOCTYPE svg PUBLIC "-//W3C//DTD SVG 20010904//EN"
 "http://www.w3.org/TR/2001/REC-SVG-20010904/DTD/svg10.dtd">
<svg version="1.0" xmlns="http://www.w3.org/2000/svg"
 width="399.000000pt" height="399.000000pt" viewBox="0 0 399.000000 399.000000"
 preserveAspectRatio="xMidYMid meet">
<metadata>
Created by potrace 1.11, written by Peter Selinger 2001-2013
</metadata>
<g transform="translate(0.000000,399.000000) scale(0.100000,-0.100000)"
fill="#000000" stroke="none">
<path d="M3160 3922 c0 -6 -9 -8 -19 -5 -26 7 -116 -23 -163 -53 -76 -48 -160
-153 -177 -220 -6 -22 -16 -61 -23 -89 -9 -40 -24 -62 -73 -111 l-60 -60 -70
-2 c-71 -2 -110 -18 -123 -50 -3 -9 -16 -27 -29 -40 -13 -13 -23 -32 -23 -43
0 -49 -35 -75 -60 -44 -9 11 -8 20 7 42 25 37 23 57 -6 61 -63 9 -129 -42
-174 -135 -29 -62 -114 -153 -141 -153 -12 0 -56 41 -56 52 0 3 14 19 30 36
17 18 30 41 30 53 0 19 -4 21 -41 16 -90 -12 -159 -94 -159 -190 0 -108 66
-183 178 -202 33 -5 42 -11 37 -22 -9 -26 -15 -172 -20 -508 -2 -176 -4 -335
-4 -352 -1 -19 -6 -33 -13 -33 -26 0 -118 44 -118 56 0 7 -6 17 -14 21 -13 7
-18 65 -25 311 -1 33 -23 71 -68 116 -54 55 -87 66 -198 66 -91 0 -95 -1 -95
-22 0 -12 7 -30 17 -40 13 -15 14 -23 5 -43 -22 -47 -62 -24 -62 36 0 20 -7
42 -15 49 -8 7 -15 22 -15 33 0 23 -91 117 -136 140 -69 36 -258 69 -266 47
-2 -4 -29 -11 -61 -14 -98 -10 -198 -77 -252 -171 -37 -62 -41 -91 -16 -105
19 -9 27 -6 63 24 48 41 80 46 102 14 17 -24 21 -65 8 -85 -19 -31 -113 -42
-182 -23 -53 15 -61 23 -71 71 -22 100 -96 161 -185 153 -44 -3 -95 -24 -125
-50 -8 -8 -30 -16 -48 -18 -56 -6 -84 7 -107 50 -20 38 -56 57 -74 37 -12 -13
7 -143 30 -206 37 -99 159 -227 216 -227 13 0 33 -9 44 -20 13 -13 34 -20 58
-21 107 -2 151 -21 176 -78 18 -39 18 -40 -4 -75 -50 -82 -118 -74 -225 26
-16 15 -35 28 -40 28 -6 0 -16 9 -23 20 -16 26 -85 60 -125 62 -64 2 -76 -3
-122 -45 -37 -35 -48 -52 -52 -87 -5 -34 -2 -46 11 -56 10 -7 23 -11 29 -9 22
8 102 -40 124 -73 12 -18 27 -59 33 -90 6 -31 15 -80 21 -107 12 -65 43 -115
70 -115 15 0 19 -5 14 -19 -10 -34 75 -96 167 -121 57 -15 200 -10 206 8 8 24
67 13 100 -19 36 -36 38 -42 17 -59 -12 -10 -22 -9 -49 4 -72 34 -87 16 -56
-67 29 -77 93 -146 175 -187 62 -32 68 -33 80 -17 15 21 25 22 25 2 0 -33 168
-12 209 26 11 10 23 19 27 19 4 0 22 11 40 25 43 33 91 118 100 180 16 109 45
137 114 109 36 -15 65 -50 65 -83 0 -44 115 -9 142 43 9 17 19 70 22 119 6 83
8 89 40 119 29 28 34 29 43 15 7 -13 13 -15 28 -7 26 14 27 13 22 -20 -5 -32
11 -60 34 -60 7 0 28 16 45 35 18 19 39 35 47 35 9 0 23 7 33 16 17 15 18 14
25 -10 13 -54 -36 -218 -111 -366 -101 -200 -319 -401 -515 -475 -25 -9 -58
-23 -73 -31 -16 -8 -40 -14 -54 -14 -15 0 -67 -7 -117 -15 -168 -29 -181 -30
-220 -24 -21 3 -150 7 -286 8 l-247 2 -31 -36 c-34 -38 -41 -75 -19 -97 8 -7
12 -18 10 -25 -2 -6 8 -20 22 -30 15 -10 35 -25 44 -34 10 -8 24 -19 32 -23 8
-4 30 -17 51 -29 87 -53 167 -96 223 -120 86 -36 275 -92 380 -112 50 -10 99
-21 110 -25 11 -4 30 -4 42 1 12 4 25 4 28 0 2 -5 21 -12 40 -15 55 -11 461
-8 545 3 114 15 315 57 341 72 13 7 30 12 37 11 16 -4 117 34 146 53 11 8 29
15 40 15 23 0 159 67 184 91 10 8 22 14 28 12 6 -2 26 7 45 20 19 12 62 40 96
60 134 82 358 274 428 369 11 15 25 28 30 28 31 3 265 342 265 383 0 8 6 17
13 20 13 5 53 81 97 182 32 72 100 282 100 306 0 11 5 30 11 41 6 11 20 66 31
122 16 85 20 159 25 466 3 215 1 382 -5 406 -8 35 -6 43 8 52 10 6 21 7 26 2
13 -13 103 31 132 63 55 59 61 143 18 230 -31 61 -60 82 -130 92 l-49 8 7 -26
c3 -15 17 -37 31 -51 25 -25 25 -44 2 -73 -15 -20 -41 -15 -85 17 -45 32 -51
54 -31 107 15 40 13 106 -4 140 -25 48 -83 81 -156 89 l-64 7 6 -38 c3 -21 13
-45 22 -55 14 -16 14 -18 -1 -31 -14 -11 -23 -10 -63 5 -160 61 -231 84 -237
75 -3 -5 -18 7 -34 28 -15 21 -53 62 -84 92 -31 29 -53 58 -49 63 3 6 8 29 11
52 9 85 54 130 140 142 55 7 56 8 54 69 -3 75 -3 91 0 110 3 17 -3 20 -39 23
-24 2 -43 -1 -43 -6z"/>
<path d="M1122 3468 c5 -23 13 -47 17 -53 5 -5 11 -31 14 -57 l7 -48 -70 0
-70 0 137 -135 c75 -74 139 -132 141 -130 2 2 -8 45 -23 95 -14 51 -24 94 -22
97 3 2 31 5 63 7 33 2 60 4 61 5 5 2 -251 261 -258 261 -4 0 -3 -19 3 -42z"/>
<path d="M3590 606 c0 -3 4 -14 9 -24 9 -16 51 -163 51 -176 0 -3 -32 -6 -72
-6 l-72 0 134 -130 c150 -145 159 -147 120 -18 -12 38 -19 72 -16 75 2 3 28 6
58 8 29 2 59 3 66 4 8 1 -4 16 -27 35 -22 18 -78 71 -124 117 -97 98 -127 125
-127 115z"/>
</g>
</svg>
